<svg width="22" height="24" viewBox="0 0 22 24" fill="none" xmlns="http://www.w3.org/2000/svg">
<g clip-path="url(#clip0_1_357)">
<rect width="22" height="24" fill="#08431D"/>
<path d="M21.9998 11.2459C21.8669 8.90628 21.1093 6.66022 19.8205 4.7846C18.5316 2.90897 16.7678 1.48576 14.7465 0.690412C12.7252 -0.104941 10.5347 -0.237673 8.44514 0.308577C6.35552 0.854827 4.4581 2.05618 2.98676 3.76455C1.51542 5.47292 0.534481 7.61364 0.164856 9.92281C-0.20477 12.232 0.0530767 14.6087 0.906612 16.7599C1.76015 18.9112 3.17206 20.7429 4.96831 22.0294C6.76456 23.3159 8.86663 24.0009 11.0154 23.9999H16.9582C18.2948 23.9981 19.5761 23.418 20.5213 22.3869C21.4664 21.3559 21.9981 19.958 21.9998 18.4999V11.3399V11.2459ZM19.2498 18.4999C19.2498 19.1629 19.0084 19.7988 18.5786 20.2677C18.1488 20.7365 17.5659 20.9999 16.9582 20.9999H11.0154C9.85075 20.9992 8.69932 20.7306 7.63619 20.2118C6.57306 19.693 5.6221 18.9356 4.84532 17.9889C4.0651 17.0429 3.47931 15.9259 3.12722 14.7128C2.77514 13.4996 2.6649 12.2184 2.8039 10.9549C3.02323 8.96309 3.84379 7.10748 5.1363 5.68044C6.42882 4.2534 8.11983 3.33605 9.9429 3.07291C10.2996 3.02435 10.6587 2.99997 11.0182 2.99991C12.9396 2.99391 14.8018 3.72523 16.2789 5.06591C17.14 5.84622 17.8472 6.80881 18.3578 7.89556C18.8684 8.98231 19.1719 10.1707 19.2498 11.3889V18.4999Z" fill="#FFFEFE"/>
<path d="M8.7085 11.0001H11.4585C11.8232 11.0001 12.1729 10.8421 12.4308 10.5608C12.6886 10.2795 12.8335 9.89795 12.8335 9.50012C12.8335 9.1023 12.6886 8.72077 12.4308 8.43946C12.1729 8.15816 11.8232 8.00012 11.4585 8.00012H8.7085C8.34382 8.00012 7.99409 8.15816 7.73622 8.43946C7.47836 8.72077 7.3335 9.1023 7.3335 9.50012C7.3335 9.89795 7.47836 10.2795 7.73622 10.5608C7.99409 10.8421 8.34382 11.0001 8.7085 11.0001Z" fill="#08431D"/>
<path d="M15.1252 12.9999H8.7085C8.34382 12.9999 7.99409 13.1579 7.73622 13.4392C7.47836 13.7205 7.3335 14.1021 7.3335 14.4999C7.3335 14.8977 7.47836 15.2792 7.73622 15.5605C7.99409 15.8418 8.34382 15.9999 8.7085 15.9999H15.1252C15.4898 15.9999 15.8396 15.8418 16.0974 15.5605C16.3553 15.2792 16.5002 14.8977 16.5002 14.4999C16.5002 14.1021 16.3553 13.7205 16.0974 13.4392C15.8396 13.1579 15.4898 12.9999 15.1252 12.9999Z" fill="#08431D"/>
</g>
<defs>
<clipPath id="clip0_1_357">
<rect width="22" height="24" fill="white"/>
</clipPath>
</defs>
</svg>
