<svg width="22" height="24" viewBox="0 0 22 24" fill="none" xmlns="http://www.w3.org/2000/svg">
<g clip-path="url(#clip0_1_356)">
<path d="M21.0602 8.69514L14.5647 1.60916C12.5944 -0.534759 9.40518 -0.534759 7.43485 1.60916L0.939364 8.69514C0.33574 9.35013 -0.00259512 10.2413 -0.000231843 11.1701V21.5481C0.00178768 22.9027 1.00846 24 2.25021 24.0011H19.7493C20.9911 24 21.9977 22.9027 21.9997 21.5481V11.1701C22.0021 10.2413 21.6638 9.35013 21.0602 8.69514ZM19.2497 21.0011H14.6664V17.8191C14.6664 15.7105 13.0995 14.0011 11.1666 14.0011H10.8329C8.90004 14.0011 7.3331 15.7105 7.3331 17.8191V21.0011H2.74976V11.1701C2.75006 11.0375 2.7981 10.9104 2.88361 10.8161L9.3791 3.73015C10.2739 2.7537 11.7249 2.75352 12.62 3.72969C12.6201 3.72983 12.6203 3.73001 12.6204 3.73015L19.1159 10.8161C19.2014 10.9104 19.2495 11.0375 19.2498 11.1701V21.0011H19.2497Z" fill="#FFFEFE"/>
</g>
<defs>
<clipPath id="clip0_1_356">
<rect width="22" height="24" fill="white"/>
</clipPath>
</defs>
</svg>
