<svg width="22" height="24" viewBox="0 0 22 24" fill="none" xmlns="http://www.w3.org/2000/svg">
<g clip-path="url(#clip0_1_355)">
<path d="M10.498 14.0188C6.59146 14.404 3.61519 18.0051 3.66705 22.2838V22.5008C3.66705 23.3292 4.28266 24.0008 5.04205 24.0008C5.80144 24.0008 6.41705 23.3292 6.41705 22.5008V22.2238C6.37571 19.5967 8.1529 17.3564 10.542 17.0238C13.064 16.751 15.3112 18.7602 15.5613 21.5114C15.5761 21.6741 15.5836 21.8374 15.5837 22.0008V22.5008C15.5837 23.3292 16.1993 24.0008 16.9587 24.0008C17.7181 24.0008 18.3337 23.3292 18.3337 22.5008V22.0008C18.3292 17.5775 15.0386 13.9957 10.984 14.0006C10.8219 14.0008 10.6598 14.0069 10.498 14.0188Z" fill="#FFF7F7"/>
<path d="M11.0004 12C14.0379 12 16.5004 9.31369 16.5004 6C16.5004 2.68631 14.0379 0 11.0004 0C7.96282 0 5.50037 2.68631 5.50037 6C5.50337 9.31233 7.96407 11.9967 11.0004 12ZM11.0004 3C12.5191 3 13.7504 4.34316 13.7504 6C13.7504 7.65684 12.5191 9 11.0004 9C9.48159 9 8.25037 7.65684 8.25037 6C8.25037 4.34316 9.48159 3 11.0004 3Z" fill="#FFF7F7"/>
</g>
<defs>
<clipPath id="clip0_1_355">
<rect width="22" height="24" fill="white"/>
</clipPath>
</defs>
</svg>
